<svg width="24" height="24" viewBox="0 0 24 24" fill="none" xmlns="http://www.w3.org/2000/svg">
<path d="M21.424 8.66835C20.19 5.14735 17.128 2.62938 13.431 2.09938C12.497 1.96638 11.505 1.96638 10.568 2.09938C6.87299 2.62938 3.81102 5.14742 2.58002 8.66042C2.19502 9.72442 2 10.8484 2 12.0004C2 13.1524 2.19499 14.2754 2.57599 15.3314C3.80999 18.8524 6.87197 21.3704 10.569 21.9004C11.036 21.9664 11.517 22.0004 12 22.0004C12.483 22.0004 12.964 21.9674 13.432 21.9004C17.127 21.3704 20.189 18.8524 21.42 15.3394C21.805 14.2754 22 13.1514 22 11.9994C22 10.8474 21.805 9.72435 21.424 8.66835ZM20 11.9994C20 12.6824 19.914 13.3514 19.743 14.0004H16.865C16.945 13.3364 17 12.6694 17 11.9994C17 11.3294 16.945 10.6624 16.865 10.0004H19.744C19.914 10.6464 20 11.3154 20 11.9994ZM9.15399 14.0004C9.06299 13.3384 9 12.6704 9 11.9994C9 11.3314 9.06199 10.6644 9.15399 10.0004H14.847C14.938 10.6624 15.001 11.3294 15.001 11.9994C15.001 12.6684 14.939 13.3354 14.847 14.0004H9.15399ZM4.25598 14.0004C4.08598 13.3534 4 12.6834 4 11.9994C4 11.3174 4.08598 10.6484 4.25598 10.0004H7.13501C7.05501 10.6634 7 11.3304 7 11.9994C7 12.6704 7.05501 13.3384 7.13501 14.0004H4.25598ZM18.909 8.00038H16.498C16.23 6.86938 15.847 5.77939 15.351 4.73439C16.845 5.42039 18.083 6.55938 18.909 8.00038ZM12.702 4.04836C13.479 5.28136 14.065 6.60138 14.445 8.00038H9.55499C9.93399 6.60538 10.52 5.28336 11.298 4.04836C11.532 4.02836 11.763 3.99941 12 3.99941C12.238 3.99941 12.469 4.02836 12.702 4.04836ZM8.64899 4.73342C8.15199 5.78042 7.76898 6.87138 7.50098 8.00038H5.08899C5.91499 6.56038 7.15399 5.42042 8.64899 4.73342ZM5.09198 16.0004H7.50201C7.77001 17.1304 8.15299 18.2204 8.64899 19.2644C7.15599 18.5794 5.91898 17.4404 5.09198 16.0004ZM11.297 19.9505C10.521 18.7175 9.93499 17.3974 9.55499 16.0004H14.444C14.065 17.3954 13.479 18.7165 12.702 19.9505C12.234 19.9895 11.764 19.9895 11.297 19.9505ZM15.352 19.2654C15.848 18.2194 16.231 17.1294 16.499 16.0004H18.91C18.084 17.4394 16.846 18.5784 15.352 19.2654Z" fill="white"/>
</svg>
